<svg width="176" height="51" viewBox="0 0 176 51" fill="none" xmlns="http://www.w3.org/2000/svg">
<g id="Frame 225">
<path id="Vector" fill-rule="evenodd" clip-rule="evenodd" d="M34.1062 7.15549C37.0027 8.94709 40.5509 13.7706 41.7819 17.3538C43.2302 21.3505 41.8543 25.2782 38.4509 28.1724C32.8752 32.8581 29.3269 36.0967 26.7201 39.0598C24.6925 41.4026 22.158 44.3657 22.3753 50.4296C17.0167 44.2968 16.003 34.8564 21.796 28.7236C28.0235 22.1085 29.1821 20.7303 31.4993 17.8362C33.6717 15.0799 34.4682 11.1521 34.1062 7.15549Z" fill="#558EC0"/>
<path id="Vector_2" fill-rule="evenodd" clip-rule="evenodd" d="M9.88354 37.259C-5.16564 24.5345 -1.05464 6.86167 20.9686 1.84258C23.3177 1.27704 24.3454 1.06497 25.52 0.570129C26.768 3.04433 26.9148 4.953 23.8316 7.00306C16.1234 12.0222 4.45115 18.8792 9.88354 37.259Z" fill="#558EC0"/>
<path id="Vector_3" fill-rule="evenodd" clip-rule="evenodd" d="M64.8642 40.3967C63.6321 40.8831 63.016 41.0221 61.1679 41.0221C53.8524 41.0221 48 35.5326 48 28.7924C48 22.0522 53.9294 16.5628 61.1679 16.5628C62.4 16.5628 63.6321 16.7018 64.9412 17.1187V23.164C63.7861 22.5386 62.631 22.2607 61.1679 22.2607C57.1636 22.2607 53.9294 25.1791 53.9294 28.7924C53.9294 32.4057 57.1636 35.3242 61.1679 35.3242C62.862 35.3242 63.7091 35.0462 64.7872 34.4903L64.8642 40.3967Z" fill="#053D5B"/>
<path id="Vector_4" fill-rule="evenodd" clip-rule="evenodd" d="M147.765 28.7924C147.765 35.5326 142.043 41.0221 135.059 41.0221C128 41.0221 122.353 35.5326 122.353 28.7924C122.353 22.0522 128.074 16.5628 135.059 16.5628C142.043 16.5628 147.765 22.0522 147.765 28.7924ZM134.985 22.2607C131.121 22.2607 128 25.1791 128 28.7924C128 32.4057 131.121 35.3242 134.985 35.3242C138.848 35.3242 141.969 32.4057 141.969 28.7924C141.969 25.1791 138.848 22.2607 134.985 22.2607Z" fill="#053D5B"/>
<path id="Vector_5" fill-rule="evenodd" clip-rule="evenodd" d="M94.0148 40.9516H87.5295V26.0082C87.5295 21.0035 91.9303 16.5628 97.4119 16.5628C102.894 16.5628 107.294 21.0035 107.294 26.0082V41.0221H100.809V26.0082C100.809 23.823 99.2648 22.4838 97.3347 22.4838C95.4045 22.4838 93.8604 24.0345 93.8604 26.0082L94.0148 40.9516Z" fill="#053D5B"/>
<path id="Vector_6" fill-rule="evenodd" clip-rule="evenodd" d="M155.824 40.9516H149.647V26.0082C149.647 21.0035 153.839 16.5628 159.059 16.5628C164.28 16.5628 168.471 21.0035 168.471 26.0082V41.0221H162.294V26.0082C162.294 23.8935 160.824 22.4838 158.986 22.4838C157.147 22.4838 155.677 24.0345 155.677 26.0082L155.824 40.9516Z" fill="#053D5B"/>
<path id="Vector_7" fill-rule="evenodd" clip-rule="evenodd" d="M73 34.6077V40.9516H66.8235V26.0082C66.8235 21.0035 71.0147 16.5628 76.2353 16.5628C81.4558 16.5628 85.647 21.0035 85.647 26.0082V41.0221H79.4705V34.5372H73V34.6077ZM79.5441 29.0391V26.0787C79.5441 23.964 78.0735 22.5543 76.2353 22.5543C74.5441 22.5543 72.9264 24.105 72.9264 26.0787V29.1096H79.5441V29.0391Z" fill="#053D5B"/>
<path id="Vector_8" fill-rule="evenodd" clip-rule="evenodd" d="M117.831 25.5702L119.77 28.9864C123.128 34.6802 119.696 42.6515 109.177 40.7298V35.1072C113.504 36.673 115.891 34.4667 114.026 30.9793C114.026 30.9793 112.683 28.6306 111.638 26.8513C109.102 22.581 112.31 15.3214 121.412 16.7448V22.5098C119.099 20.8728 116.04 22.5098 117.831 25.5702Z" fill="#053D5B"/>
<path id="Vector_9" d="M176 19.8555C176 20.5472 175.668 21.1006 175.17 21.5156C174.671 21.9307 173.924 22.2074 173.177 22.2074C172.346 22.2074 171.682 21.9307 171.183 21.5156C170.685 21.1006 170.353 20.4781 170.353 19.8555C170.353 19.1638 170.685 18.6104 171.183 18.1954C171.682 17.7804 172.429 17.5037 173.177 17.5037C173.924 17.5037 174.671 17.7804 175.17 18.1954C175.668 18.6104 176 19.1638 176 19.8555ZM174.921 21.3773C175.419 20.9623 175.668 20.4781 175.668 19.8555C175.668 19.3021 175.419 18.7488 174.921 18.3337C174.422 17.9187 173.841 17.7112 173.094 17.7112C172.346 17.7112 171.765 17.9187 171.267 18.3337C170.768 18.7488 170.519 19.233 170.519 19.8555C170.519 20.4781 170.768 20.9623 171.267 21.3773C171.765 21.7923 172.346 21.9999 173.094 21.9999C173.841 21.9999 174.422 21.7232 174.921 21.3773Z" fill="#053D5B"/>
<path id="Vector_10" fill-rule="evenodd" clip-rule="evenodd" d="M172.678 18.8153H173.287C173.509 18.8153 173.675 18.8895 173.675 19.2609C173.675 19.5579 173.564 19.7065 173.287 19.7065H172.678V18.8153ZM172.291 21.2661H172.678V20.0778H173.232C173.564 20.0778 173.675 20.3006 173.675 20.8205C173.675 20.9691 173.675 21.1176 173.73 21.2661H174.118C174.062 21.1176 174.007 20.8205 174.007 20.5234C174.007 20.0778 173.841 19.9293 173.675 19.9293C173.73 19.9293 174.007 19.7808 174.007 19.1866C174.007 18.6667 173.786 18.4439 173.287 18.4439H172.235V21.2661H172.291Z" fill="#053D5B"/>
</g>
</svg>
