<svg width="110" height="32" viewBox="0 0 110 32" fill="none" xmlns="http://www.w3.org/2000/svg">
<g id="Frame 225">
<path id="Vector" fill-rule="evenodd" clip-rule="evenodd" d="M21.3162 4.44446C23.1265 5.57303 25.3442 8.61148 26.1135 10.8686C27.0187 13.3862 26.1588 15.8604 24.0317 17.6834C20.5468 20.6351 18.3292 22.6752 16.6999 24.5417C15.4327 26.0175 13.8486 27.8839 13.9844 31.7037C10.6353 27.8405 10.0017 21.8939 13.6223 18.0307C17.5145 13.8637 18.2387 12.9955 19.6869 11.1725C21.0447 9.4362 21.5425 6.96203 21.3162 4.44446Z" fill="#558EC0"/>
<path id="Vector_2" fill-rule="evenodd" clip-rule="evenodd" d="M6.17714 23.4074C-3.2286 15.392 -0.659228 4.25947 13.1053 1.09784C14.5735 0.741596 15.2158 0.608006 15.9499 0.296295C16.7299 1.85485 16.8217 3.05716 14.8947 4.34853C10.0771 7.51017 2.78189 11.8296 6.17714 23.4074Z" fill="#558EC0"/>
<path id="Vector_3" fill-rule="evenodd" clip-rule="evenodd" d="M40.5401 25.3838C39.7701 25.6902 39.385 25.7778 38.2299 25.7778C33.6578 25.7778 30 22.3199 30 18.0741C30 13.8283 33.7059 10.3704 38.2299 10.3704C39 10.3704 39.7701 10.4579 40.5882 10.7205V14.5286C39.8663 14.1347 39.1444 13.9596 38.2299 13.9596C35.7273 13.9596 33.7059 15.798 33.7059 18.0741C33.7059 20.3502 35.7273 22.1885 38.2299 22.1885C39.2888 22.1885 39.8182 22.0135 40.492 21.6633L40.5401 25.3838Z" fill="#053D5B"/>
<path id="Vector_4" fill-rule="evenodd" clip-rule="evenodd" d="M92.3529 18.0741C92.3529 22.3199 88.7771 25.7778 84.4118 25.7778C80 25.7778 76.4706 22.3199 76.4706 18.0741C76.4706 13.8283 80.0464 10.3704 84.4118 10.3704C88.7771 10.3704 92.3529 13.8283 92.3529 18.0741ZM84.3653 13.9596C81.9505 13.9596 80 15.798 80 18.0741C80 20.3502 81.9505 22.1885 84.3653 22.1885C86.7802 22.1885 88.7306 20.3502 88.7306 18.0741C88.7306 15.798 86.7802 13.9596 84.3653 13.9596Z" fill="#053D5B"/>
<path id="Vector_5" fill-rule="evenodd" clip-rule="evenodd" d="M58.7592 25.7334H54.7059V16.3202C54.7059 13.1677 57.4563 10.3704 60.8823 10.3704C64.3084 10.3704 67.0588 13.1677 67.0588 16.3202V25.7778H63.0055V16.3202C63.0055 14.9437 62.0404 14.1001 60.8341 14.1001C59.6277 14.1001 58.6627 15.0769 58.6627 16.3202L58.7592 25.7334Z" fill="#053D5B"/>
<path id="Vector_6" fill-rule="evenodd" clip-rule="evenodd" d="M97.3897 25.7334H93.5294V16.3202C93.5294 13.1677 96.1489 10.3704 99.4118 10.3704C102.675 10.3704 105.294 13.1677 105.294 16.3202V25.7778H101.434V16.3202C101.434 14.9881 100.515 14.1001 99.3658 14.1001C98.2169 14.1001 97.2978 15.0769 97.2978 16.3202L97.3897 25.7334Z" fill="#053D5B"/>
<path id="Vector_7" fill-rule="evenodd" clip-rule="evenodd" d="M45.625 21.7372V25.7334H41.7647V16.3202C41.7647 13.1677 44.3842 10.3704 47.6471 10.3704C50.9099 10.3704 53.5294 13.1677 53.5294 16.3202V25.7778H49.6691V21.6928H45.625V21.7372ZM49.7151 18.2295V16.3646C49.7151 15.0325 48.796 14.1445 47.6471 14.1445C46.5901 14.1445 45.579 15.1214 45.579 16.3646V18.2739H49.7151V18.2295Z" fill="#053D5B"/>
<path id="Vector_8" fill-rule="evenodd" clip-rule="evenodd" d="M73.6442 16.0443L74.8565 18.1963C76.9548 21.7829 74.8099 26.8042 68.2353 25.5937V22.0519C70.9397 23.0382 72.4318 21.6484 71.2661 19.4516C71.2661 19.4516 70.4268 17.9721 69.774 16.8513C68.1887 14.1613 70.1937 9.58838 75.8824 10.485V14.1165C74.4369 13.0853 72.5251 14.1165 73.6442 16.0443Z" fill="#053D5B"/>
<path id="Vector_9" d="M110 12.4444C110 12.8802 109.792 13.2287 109.481 13.4902C109.17 13.7516 108.702 13.9259 108.235 13.9259C107.716 13.9259 107.301 13.7516 106.99 13.4902C106.678 13.2287 106.471 12.8366 106.471 12.4444C106.471 12.0087 106.678 11.6601 106.99 11.3987C107.301 11.1372 107.768 10.963 108.235 10.963C108.702 10.963 109.17 11.1372 109.481 11.3987C109.792 11.6601 110 12.0087 110 12.4444ZM109.325 13.403C109.637 13.1416 109.792 12.8366 109.792 12.4444C109.792 12.0959 109.637 11.7473 109.325 11.4858C109.014 11.2244 108.651 11.0937 108.183 11.0937C107.716 11.0937 107.353 11.2244 107.042 11.4858C106.73 11.7473 106.574 12.0523 106.574 12.4444C106.574 12.8366 106.73 13.1416 107.042 13.403C107.353 13.6645 107.716 13.7952 108.183 13.7952C108.651 13.7952 109.014 13.6209 109.325 13.403Z" fill="#053D5B"/>
<path id="Vector_10" fill-rule="evenodd" clip-rule="evenodd" d="M107.924 11.7895H108.305C108.443 11.7895 108.547 11.8362 108.547 12.0702C108.547 12.2573 108.478 12.3509 108.305 12.3509H107.924V11.7895ZM107.682 13.3333H107.924V12.5848H108.27C108.478 12.5848 108.547 12.7251 108.547 13.0526C108.547 13.1462 108.547 13.2398 108.581 13.3333H108.824C108.789 13.2398 108.754 13.0526 108.754 12.8655C108.754 12.5848 108.651 12.4912 108.547 12.4912C108.581 12.4912 108.754 12.3976 108.754 12.0234C108.754 11.6959 108.616 11.5555 108.305 11.5555H107.647V13.3333H107.682Z" fill="#053D5B"/>
</g>
</svg>
