<svg width="124" height="16" viewBox="0 0 124 16" fill="none" xmlns="http://www.w3.org/2000/svg">
<g id="Frame" clip-path="url(#clip0_1_418)">
<path id="Vector" fill-rule="evenodd" clip-rule="evenodd" d="M74.7014 15.3625H73.3734V0.0449104H74.7014V15.3625ZM106.255 0.0449104V12.8845L94.3949 0.0449104V0H93.0229V15.3625H94.3949V2.38749L106.255 15.3625V15.3169V15.3625H107.627V0.0449104H106.255ZM90.0132 0.0449104V0.0898207L75.9401 15.3169H77.9752L90.0132 1.93707V10.8114H84.0833V12.2082H90.0132V15.3169H91.3399V0.0449104H90.0132Z" fill="black"/>
<path id="Vector_2" fill-rule="evenodd" clip-rule="evenodd" d="M67.7092 8.37833H67.7979C70.0105 8.37833 71.8242 6.35144 71.8242 4.09935C71.8242 1.93707 70.1426 0.13473 68.0621 0.0449104V0H67.8413H56.9553V15.3625H58.3274V1.39683H67.974C68.6254 1.4833 69.223 1.80556 69.6549 2.30319C70.0868 2.80083 70.3232 3.43968 70.32 4.10001C70.32 5.54174 69.2134 6.93792 67.7532 7.0284H65.8949V8.55995H65.9382L69.8771 15.3176H72.0463L67.7092 8.37833ZM48.1924 0L40.8024 0.0449104V15.3618H51.9098C54.0337 15.2264 55.6712 13.4241 55.6712 11.2611C55.6712 9.77516 54.9188 8.51372 53.7682 7.79252C54.9182 7.07264 55.6712 5.58599 55.6712 4.09935C55.6712 1.93707 54.0337 0.17964 51.9539 0.0449104V0H48.1924ZM48.1924 13.965H42.1738V1.39683H51.8651C52.5165 1.48332 53.114 1.8056 53.5458 2.30325C53.9775 2.8009 54.2139 3.43974 54.2104 4.10001C54.2104 5.58665 53.0158 6.98282 51.555 7.0284V8.55863C53.0151 8.55863 54.2104 9.77516 54.2104 11.2611C54.2104 12.658 53.1485 13.784 51.8211 13.965H48.1924Z" fill="black"/>
<path id="Vector_3" fill-rule="evenodd" clip-rule="evenodd" d="M0.529419 0V15.3169H1.90151L13.9388 2.29766V10.8114H8.09693V12.2082H13.9388V15.3169H15.2669V0H0.529419ZM1.90151 13.2444V8.01904H6.76953L1.90151 13.2444ZM1.90151 6.62221V1.39617H12.965L8.09693 6.62221H1.90151Z" fill="#00ACEC"/>
<path id="Vector_4" fill-rule="evenodd" clip-rule="evenodd" d="M115.947 0C111.787 0 108.38 3.42372 108.38 7.65911C108.38 11.8925 111.787 15.3625 115.947 15.3625C120.107 15.3625 123.471 11.8925 123.471 7.65911C123.471 3.42372 120.107 0 115.947 0ZM115.947 13.7398C112.672 13.7398 110.061 11.0373 110.061 7.74893C110.061 4.41504 112.672 1.75743 115.947 1.75743C119.178 1.75743 121.833 4.41504 121.833 7.74893C121.833 11.0373 119.178 13.7398 115.947 13.7398Z" fill="black"/>
<path id="Vector_5" fill-rule="evenodd" clip-rule="evenodd" d="M35.093 1.48587V0.0890388H20.2675V15.3617H21.5955V8.33264H30.3294L23.8961 15.3161H25.9319L37.9252 1.93629V10.8106H32.0393V12.2074H37.9252L38.0133 15.4066H39.3854L39.2973 0.0441284H37.9252V0.0890388L31.6161 6.93647H21.5955V1.48587H35.093Z" fill="black"/>
</g>
<defs>
<clipPath id="clip0_1_418">
<rect width="122.941" height="15.4074" fill="white" transform="translate(0.529419)"/>
</clipPath>
</defs>
</svg>
