<svg width="186" height="53" viewBox="0 0 186 53" fill="none" xmlns="http://www.w3.org/2000/svg">
<g id="hahnemuehle-logo-vector 1" clip-path="url(#clip0_1_268)">
<path id="Vector" d="M59.1875 46.9875V28.7685H56.8737V36.608H48.9451V28.7685H46.6313V46.9875H48.9451V38.7403H56.9046V46.9875H59.1875ZM72.9469 37.7055C72.9469 34.852 71.7128 33.3781 67.9491 33.3781C66.5299 33.3781 64.864 33.5976 63.6608 33.9739L63.8768 35.8241C64.9257 35.6045 66.5608 35.385 67.7948 35.385C69.9235 35.385 70.6331 35.9808 70.6331 37.6428V39.7124H67.1778C64.5247 39.7124 63.1672 40.7159 63.1672 43.4754C63.1672 45.8273 64.2162 47.3011 66.6533 47.3011C68.2267 47.3011 69.7384 46.8621 70.9107 46.0468L71.065 47.0502H72.9777L72.9469 37.7055ZM70.6639 44.228C69.6458 44.8865 68.4118 45.3255 67.2704 45.3255C65.6661 45.3255 65.4193 44.7611 65.4193 43.4127C65.4193 42.0643 65.9438 41.6253 67.3321 41.6253H70.6639V44.228ZM87.0764 46.9875V36.7648C87.0764 34.7265 86.336 33.3781 84.2382 33.3781C82.7265 33.3781 80.6286 34.0366 79.1787 34.7892V27.9218L76.9266 28.2354V47.0189H79.1787V36.9843C80.5978 36.2631 82.6031 35.6045 83.5594 35.6045C84.3924 35.6045 84.8243 35.9495 84.8243 36.8275V47.0189H87.0764V46.9875ZM101.422 46.9875V36.7648C101.422 34.7265 100.681 33.3781 98.5837 33.3781C97.0411 33.3781 94.7582 34.068 93.3082 34.8206L93.0923 33.6917H91.2412V47.0189H93.4933V36.9529C94.9124 36.2317 96.9177 35.6045 97.8741 35.6045C98.7071 35.6045 99.139 35.9495 99.139 36.8275V47.0189H101.422V46.9875ZM107.191 42.3465V41.249H114.996V38.4581C114.996 35.6986 113.947 33.4095 110.06 33.4095C106.173 33.4095 104.939 35.6359 104.939 38.3954V42.3779C104.939 45.3882 106.265 47.2697 110.122 47.2697C111.757 47.2697 113.515 46.9875 114.749 46.5171L114.472 44.667C113.022 45.0433 111.633 45.2942 110.338 45.2942C107.777 45.2942 107.191 44.4475 107.191 42.3465ZM107.191 38.2073C107.191 36.3258 107.931 35.3223 110.06 35.3223C112.189 35.3223 112.806 36.3885 112.806 38.2073V39.3048H107.191V38.2073ZM136.653 46.9875V36.7648C136.653 34.7265 135.913 33.3781 133.815 33.3781C132.18 33.3781 129.959 34.0366 128.385 34.8206C128.015 33.9112 127.244 33.3781 125.886 33.3781C124.344 33.3781 122.061 34.068 120.611 34.8206L120.395 33.6917H118.544V47.0189H120.796V36.9529C122.215 36.2317 124.22 35.6045 125.177 35.6045C126.01 35.6045 126.442 35.9495 126.442 36.8275V47.0189H128.694V36.9529C130.113 36.2317 131.995 35.6045 133.075 35.6045C133.908 35.6045 134.339 35.9495 134.339 36.8275V47.0189H136.653V46.9875ZM140.695 33.6917V43.9144C140.695 45.9527 141.435 47.3011 143.533 47.3011C145.075 47.3011 147.358 46.6112 148.808 45.8586L149.024 46.9875H150.875V33.6604H148.623V43.7263C147.204 44.4475 145.199 45.0747 144.242 45.0747C143.409 45.0747 142.978 44.7297 142.978 43.8517V33.6604L140.695 33.6917ZM142.515 31.6534H144.613V29.3643H142.515V31.6534ZM147.173 31.6534H149.271V29.3643H147.173V31.6534ZM165.344 46.9875V36.7648C165.344 34.7265 164.604 33.3781 162.506 33.3781C160.994 33.3781 158.896 34.0366 157.446 34.7892V27.9218L155.194 28.2354V47.0189H157.446V36.9843C158.866 36.2631 160.871 35.6045 161.827 35.6045C162.66 35.6045 163.092 35.9495 163.092 36.8275V47.0189H165.344V46.9875ZM171.792 46.9875V27.8905L169.54 28.2041V46.9875H171.792ZM177.654 42.3465V41.249H185.459V38.4581C185.459 35.6986 184.41 33.4095 180.523 33.4095C176.636 33.4095 175.402 35.6359 175.402 38.3954V42.3779C175.402 45.3882 176.728 47.2697 180.584 47.2697C182.219 47.2697 183.978 46.9875 185.212 46.5171L184.934 44.667C183.484 45.0433 182.096 45.2942 180.8 45.2942C178.24 45.2942 177.654 44.4475 177.654 42.3465ZM177.654 38.2073C177.654 36.3258 178.394 35.3223 180.523 35.3223C182.651 35.3223 183.268 36.3885 183.268 38.2073V39.3048H177.654V38.2073Z" fill="#6F7072"/>
<path id="Vector_2" d="M36.5742 21.713C36.3582 19.2671 35.3093 17.1034 33.5817 15.6923C32.0392 14.4066 30.0647 13.7794 28.152 14.0303C25.8073 14.2812 23.8946 16.0999 22.6914 17.5737C21.334 19.2044 20.4085 20.9918 19.9149 22.2774C18.7117 21.2113 17.9405 19.957 17.5702 18.4204C17.2617 17.1034 16.9224 14.5007 16.6756 12.6192C16.4905 11.3649 16.3979 10.3614 16.3054 10.0165C16.0586 8.85622 15.2873 6.88066 14.7937 5.84584C15.8735 5.62634 16.7064 5.34411 17.5085 4.56016C18.3107 3.74486 19.6064 2.49054 19.6372 2.49054L20.4085 1.73794L19.3287 1.64387C19.1128 1.61251 13.6214 1.20486 12.6959 1.23622C12.048 1.26757 11.2459 1.61251 10.598 2.23967C10.0736 2.71004 9.39486 3.52535 8.90125 4.84239C8.40764 4.93646 3.93431 5.81448 3.93431 5.81448V6.78659L4.30452 6.88066C5.69279 7.19424 7.45127 7.94683 8.50019 8.73078L8.43849 8.76214C7.54382 9.35794 6.34065 10.1733 5.32258 11.114C4.02686 12.3056 3.40985 13.3718 3.5024 14.3125C3.5641 14.971 3.84176 15.4728 4.30452 15.8177C4.67472 16.0686 5.13748 16.194 5.66194 16.194C5.04493 17.2915 4.70557 18.1382 4.45877 18.9535C4.15026 20.0824 4.02686 21.2113 4.18111 22.6224C4.36622 24.7861 5.44598 26.9498 6.68001 28.8313H0.293945V43.8518C0.293945 45.2002 0.571601 46.4858 1.15776 47.6147C1.68222 48.6809 2.42263 49.5903 3.34815 50.3742C5.01408 51.754 7.23532 52.5693 9.3023 52.5693C11.3693 52.5693 13.5905 51.754 15.2565 50.3742C16.182 49.6216 16.9224 48.6809 17.4468 47.6147C17.9713 46.5799 18.249 45.451 18.3107 44.2594C18.4341 42.2525 19.1128 39.2735 20.1617 36.953C21.334 34.3189 22.9074 32.9392 24.9127 32.751C25.9924 32.657 27.0722 32.8137 27.9977 33.2528C28.769 33.5977 29.5094 34.1308 30.0956 34.7893C31.1753 35.9495 31.6998 37.2666 31.7615 37.5488V37.5175L32.1317 38.7404L32.6562 37.6742C33.4891 35.9182 34.6614 33.1587 35.5253 29.9288C36.4816 26.8557 36.7901 24.0649 36.5742 21.713ZM7.42042 29.7407L7.63637 30.0229C8.31509 30.9323 9.02465 31.7162 9.61081 32.3434L10.9374 33.7858C13.0661 36.0436 14.732 37.831 15.5033 39.1481C16.4905 40.8414 17.2 42.5034 17.4468 43.7577C17.4777 43.8831 17.5085 44.134 17.5085 44.2281C17.3851 46.9249 15.9969 48.6182 14.7937 49.6216C13.282 50.876 11.2767 51.6286 9.4257 51.6286C7.54382 51.6286 5.56939 50.9073 4.05771 49.6216C2.82369 48.5868 1.34286 46.7367 1.34286 43.8518V29.8034L7.42042 29.7407ZM9.02465 9.51473L9.2406 9.35794C9.39486 9.57745 9.48741 9.7656 9.48741 9.9851C9.54911 10.7377 8.8704 11.553 8.03743 12.6192C7.48212 13.3091 6.86511 14.1244 6.2481 15.0651C5.66194 15.2219 5.16833 15.1592 4.82897 14.9083C4.61302 14.7202 4.45877 14.4693 4.42792 14.1244C4.36622 13.4972 4.89068 12.6819 5.9396 11.7098C6.95766 10.8945 8.16083 10.1105 9.02465 9.51473ZM34.754 29.7093C34.0753 32.2807 33.1806 34.6012 32.3785 36.2631C32.07 35.636 31.6072 34.9147 30.9594 34.2249C29.8488 32.9705 27.8743 31.5594 24.9127 31.8103C23.6478 31.9357 22.5063 32.4688 21.5191 33.3468C20.717 34.0994 20.0074 35.197 19.3904 36.5453C18.6809 38.176 18.1873 40.0261 17.8171 41.7508C17.4468 40.7787 16.9532 39.7439 16.3054 38.6463C15.4724 37.2352 13.7756 35.4165 11.6161 33.1273L10.2895 31.6849C8.8704 30.1483 7.66722 28.5804 6.80341 27.0752C5.84704 25.4133 5.29173 23.8454 5.16833 22.497C5.04493 21.2113 5.13748 20.2078 5.41513 19.173C5.66194 18.2323 6.1247 17.2602 6.95766 15.8491C7.54382 14.8142 8.19168 13.9989 8.80869 13.2777C9.79591 12.0547 10.5363 11.0826 10.4438 9.95375C10.3512 9.01301 9.57996 8.13498 8.06828 7.31967C7.42042 6.97473 6.68001 6.66115 6.0013 6.41029C7.45127 6.12807 9.33315 5.75177 9.33315 5.75177L9.61081 5.68905L9.70336 5.43819C10.3821 3.21177 11.8938 2.20831 12.7267 2.17696C13.3129 2.1456 16.1203 2.3651 18.1564 2.49054C17.7245 2.89819 17.2 3.43128 16.799 3.83893C16.1511 4.49745 15.4107 4.6856 14.3309 4.93646L13.282 5.18732L13.6831 5.78313C13.899 6.09671 15.0097 8.73078 15.349 10.2046C15.4416 10.5182 15.565 11.553 15.6884 12.7133C15.9352 14.7202 16.2745 17.2602 16.6139 18.6399C17.0766 20.6155 18.0639 22.152 19.7606 23.4377L20.3159 23.8454L20.4085 23.5004C20.8713 21.9639 22.1361 19.7061 23.3702 18.2009C24.4499 16.8525 26.2084 15.2219 28.2137 14.971C29.8488 14.7515 31.5764 15.316 32.9338 16.4449C34.4455 17.6992 35.4019 19.612 35.587 21.8071C35.8338 24.0335 35.5253 26.6989 34.754 29.7093ZM12.7884 6.53572C12.7267 5.78313 12.048 5.18733 11.2767 5.2814C10.5363 5.34412 9.95016 6.03399 10.0427 6.81795C10.1044 7.57054 10.7831 8.16634 11.5544 8.07227C12.2948 7.97819 12.8501 7.28831 12.7884 6.53572ZM11.832 6.6298C11.8629 6.8493 11.6778 7.06881 11.4618 7.10017C11.2459 7.13152 11.0299 6.94338 10.9991 6.72387C10.9682 6.50436 11.1533 6.28486 11.3693 6.2535C11.6161 6.19078 11.8012 6.34757 11.832 6.6298ZM8.22253 45.6078V45.8273C8.22253 46.1409 8.19168 46.2977 7.60552 46.2977C7.32787 46.2977 6.95766 46.2663 6.64916 46.1723L6.55661 46.8308C6.83426 46.9249 7.20447 46.9876 7.63637 46.9876C8.74699 46.9876 8.9938 46.5799 8.9938 45.89V45.5137C8.9938 44.9493 8.77784 44.573 8.03743 44.5416C7.82148 44.5416 7.69808 44.5103 7.48212 44.5103V43.4755H8.9321V42.817H6.68001V45.1374C6.98851 45.1374 7.23532 45.1374 7.66723 45.1688C8.16083 45.2002 8.22253 45.2942 8.22253 45.6078ZM3.6258 46.8935H6.03215V46.235H5.19918V42.817H4.52047L3.5024 43.1305L3.6875 43.7891L4.45877 43.5695V46.235H3.65665V46.8935H3.6258ZM9.61081 45.6392V45.89C9.61081 46.6113 9.95016 46.9562 10.9374 46.9562C11.9246 46.9562 12.264 46.674 12.264 45.89V45.6392C12.264 45.2942 12.1406 45.0434 11.6778 44.8239C12.0789 44.6044 12.1714 44.3535 12.1714 44.0399V43.7577C12.1714 43.1305 11.8629 42.7542 10.9682 42.7542C10.0736 42.7542 9.76506 43.1305 9.76506 43.7577V44.0399C9.76506 44.3535 9.88846 44.6044 10.2587 44.8239C9.73421 45.0434 9.61081 45.2942 9.61081 45.6392ZM11.431 44.0399C11.431 44.2594 11.3693 44.3535 10.9374 44.5416C10.5055 44.3535 10.4438 44.2908 10.4438 44.0399V43.7891C10.4438 43.5382 10.5363 43.4128 10.9374 43.4128C11.3384 43.4128 11.431 43.5695 11.431 43.7891V44.0399ZM10.3512 45.7019C10.3512 45.451 10.4129 45.3256 10.9374 45.1061C11.4618 45.3256 11.5235 45.4197 11.5235 45.7019V45.89C11.5235 46.2036 11.3693 46.2977 10.9374 46.2977C10.5055 46.2977 10.3512 46.1723 10.3512 45.89V45.7019ZM14.115 42.817L12.665 45.2629V45.9528H14.4235V46.8621H15.1639V45.9528H15.6575V45.2942H15.1639V42.7856H14.115V42.817ZM13.4363 45.3256L14.4235 43.5382V45.3256H13.4363Z" fill="#E1001A"/>
</g>
<defs>
<clipPath id="clip0_1_268">
<rect width="185.412" height="51.7407" fill="white" transform="translate(0.293945 0.985352)"/>
</clipPath>
</defs>
</svg>
