<svg width="116" height="33" viewBox="0 0 116 33" fill="none" xmlns="http://www.w3.org/2000/svg">
<g id="hahnemuehle-logo-vector 1" clip-path="url(#clip0_1_414)">
<path id="Vector" d="M36.8673 29.1258V17.6493H35.4212V22.5876H30.4658V17.6493H29.0197V29.1258H30.4658V23.9308H35.4405V29.1258H36.8673ZM45.4669 23.2789C45.4669 21.4814 44.6957 20.553 42.3433 20.553C41.4564 20.553 40.4151 20.6913 39.6632 20.9283L39.7981 22.0937C40.4537 21.9555 41.4756 21.8172 42.2469 21.8172C43.5773 21.8172 44.0208 22.1925 44.0208 23.2394V24.5431H41.8613C40.2031 24.5431 39.3547 25.1752 39.3547 26.9135C39.3547 28.395 40.0102 29.3234 41.5335 29.3234C42.5168 29.3234 43.4616 29.0468 44.1943 28.5332L44.2907 29.1653H45.4862L45.4669 23.2789ZM44.0401 27.3875C43.4038 27.8024 42.6325 28.0789 41.9191 28.0789C40.9165 28.0789 40.7622 27.7234 40.7622 26.874C40.7622 26.0246 41.09 25.748 41.9577 25.748H44.0401V27.3875ZM54.2979 29.1258V22.6863C54.2979 21.4024 53.8351 20.553 52.524 20.553C51.5792 20.553 50.268 20.9678 49.3618 21.4419V17.1159L47.9542 17.3135V29.1456H49.3618V22.8246C50.2488 22.3703 51.5021 21.9555 52.0998 21.9555C52.6204 21.9555 52.8903 22.1727 52.8903 22.7258V29.1456H54.2979V29.1258ZM63.2638 29.1258V22.6863C63.2638 21.4024 62.8011 20.553 61.4899 20.553C60.5258 20.553 59.099 20.9876 58.1928 21.4616L58.0578 20.7505H56.9009V29.1456H58.3085V22.8048C59.1954 22.3505 60.4487 21.9555 61.0464 21.9555C61.5671 21.9555 61.837 22.1727 61.837 22.7258V29.1456H63.2638V29.1258ZM66.8695 26.2024V25.511H71.7477V23.753C71.7477 22.0147 71.0922 20.5727 68.6627 20.5727C66.2332 20.5727 65.4619 21.9752 65.4619 23.7135V26.2221C65.4619 28.1184 66.291 29.3036 68.7012 29.3036C69.7232 29.3036 70.8222 29.1258 71.5935 28.8295L71.4199 27.6641C70.5137 27.9011 69.646 28.0592 68.8362 28.0592C67.2358 28.0592 66.8695 27.5258 66.8695 26.2024ZM66.8695 23.595C66.8695 22.4098 67.3322 21.7777 68.6627 21.7777C69.9931 21.7777 70.3787 22.4493 70.3787 23.595V24.2863H66.8695V23.595ZM85.2834 29.1258V22.6863C85.2834 21.4024 84.8206 20.553 83.5095 20.553C82.4876 20.553 81.0993 20.9678 80.1159 21.4616C79.8846 20.8888 79.4025 20.553 78.5541 20.553C77.59 20.553 76.1632 20.9876 75.257 21.4616L75.122 20.7505H73.9651V29.1456H75.3727V22.8048C76.2596 22.3505 77.5129 21.9555 78.1107 21.9555C78.6313 21.9555 78.9012 22.1727 78.9012 22.7258V29.1456H80.3088V22.8048C81.1957 22.3505 82.3719 21.9555 83.0467 21.9555C83.5673 21.9555 83.8373 22.1727 83.8373 22.7258V29.1456H85.2834V29.1258ZM87.8093 20.7505V27.19C87.8093 28.474 88.272 29.3234 89.5832 29.3234C90.5473 29.3234 91.9741 28.8888 92.8803 28.4147L93.0153 29.1258H94.1722V20.7308H92.7647V27.0715C91.8777 27.5258 90.6244 27.9209 90.0267 27.9209C89.5061 27.9209 89.2361 27.7036 89.2361 27.1505V20.7308L87.8093 20.7505ZM88.9469 19.4666H90.258V18.0246H88.9469V19.4666ZM91.8584 19.4666H93.1696V18.0246H91.8584V19.4666ZM103.215 29.1258V22.6863C103.215 21.4024 102.753 20.553 101.441 20.553C100.497 20.553 99.1854 20.9678 98.2792 21.4419V17.1159L96.8716 17.3135V29.1456H98.2792V22.8246C99.1661 22.3703 100.419 21.9555 101.017 21.9555C101.538 21.9555 101.808 22.1727 101.808 22.7258V29.1456H103.215V29.1258ZM107.245 29.1258V17.0962L105.838 17.2937V29.1258H107.245ZM110.909 26.2024V25.511H115.787V23.753C115.787 22.0147 115.131 20.5727 112.702 20.5727C110.272 20.5727 109.501 21.9752 109.501 23.7135V26.2221C109.501 28.1184 110.33 29.3036 112.74 29.3036C113.762 29.3036 114.861 29.1258 115.633 28.8295L115.459 27.6641C114.553 27.9011 113.685 28.0592 112.875 28.0592C111.275 28.0592 110.909 27.5258 110.909 26.2024ZM110.909 23.595C110.909 22.4098 111.371 21.7777 112.702 21.7777C114.032 21.7777 114.418 22.4493 114.418 23.595V24.2863H110.909V23.595Z" fill="#6F7072"/>
<path id="Vector_2" d="M22.734 13.2048C22.599 11.664 21.9434 10.3011 20.8637 9.41219C19.8996 8.60231 18.6656 8.20725 17.4701 8.36527C16.0047 8.5233 14.8092 9.66898 14.0573 10.5974C13.2089 11.6245 12.6304 12.7505 12.3219 13.5603C11.5699 12.8887 11.0879 12.0986 10.8565 11.1307C10.6637 10.3011 10.4516 8.66157 10.2973 7.47639C10.1817 6.68626 10.1238 6.05416 10.066 5.83688C9.91172 5.10601 9.42968 3.86157 9.12117 3.20972C9.79603 3.07145 10.3166 2.89367 10.818 2.39984C11.3193 1.88626 12.1291 1.09614 12.1484 1.09614L12.6304 0.622062L11.9556 0.562805C11.8206 0.543052 8.38847 0.286261 7.81002 0.306014C7.40511 0.325768 6.90379 0.543051 6.49887 0.938113C6.17109 1.23441 5.74689 1.74799 5.43839 2.57762C5.12988 2.63688 2.33405 3.18996 2.33405 3.18996V3.80231L2.56543 3.86157C3.4331 4.0591 4.53215 4.53317 5.18773 5.027L5.14916 5.04676C4.59 5.42206 3.83801 5.93564 3.20172 6.52824C2.3919 7.27885 2.00626 7.95046 2.06411 8.54305C2.10267 8.95787 2.27621 9.27392 2.56543 9.4912C2.79681 9.64922 3.08603 9.72824 3.41382 9.72824C3.02819 10.4196 2.81609 10.9529 2.66184 11.4665C2.46902 12.1776 2.39189 12.8887 2.4883 13.7776C2.60399 15.1406 3.27885 16.5035 4.05011 17.6887H0.0588226V27.1505C0.0588226 27.9998 0.232358 28.8097 0.598708 29.5208C0.926495 30.1924 1.38925 30.7653 1.9677 31.2591C3.00891 32.1282 4.39718 32.6418 5.68905 32.6418C6.98091 32.6418 8.36919 32.1282 9.41039 31.2591C9.98884 30.785 10.4516 30.1924 10.7794 29.5208C11.1072 28.869 11.2807 28.1579 11.3193 27.4072C11.3964 26.1431 11.8206 24.2665 12.4762 22.8048C13.2089 21.1455 14.1922 20.2764 15.4455 20.1579C16.1204 20.0986 16.7952 20.1974 17.3737 20.4739C17.8557 20.6912 18.3185 21.027 18.6848 21.4418C19.3597 22.1727 19.6875 23.0023 19.726 23.1801V23.1603L19.9574 23.9307L20.2852 23.2591C20.8058 22.1529 21.5385 20.4147 22.0784 18.3801C22.6761 16.4443 22.8689 14.6863 22.734 13.2048ZM4.51287 18.2616L4.64784 18.4394C5.07204 19.0122 5.51551 19.506 5.88186 19.9011L6.71097 20.8097C8.0414 22.2319 9.08261 23.3579 9.56465 24.1875C10.1817 25.2542 10.6251 26.3011 10.7794 27.0912C10.7987 27.1702 10.818 27.3282 10.818 27.3875C10.7408 29.0863 9.87315 30.1529 9.12117 30.785C8.17637 31.5751 6.92307 32.0492 5.76617 32.0492C4.59 32.0492 3.35597 31.5949 2.41118 30.785C1.63991 30.1332 0.714397 28.9677 0.714397 27.1505V18.3011L4.51287 18.2616ZM5.51551 5.52083L5.65048 5.42206C5.74689 5.56033 5.80474 5.67885 5.80474 5.81712C5.8433 6.2912 5.4191 6.80478 4.8985 7.47639C4.55143 7.91095 4.1658 8.42453 3.78017 9.01712C3.41382 9.11589 3.10531 9.07638 2.89322 8.91836C2.75824 8.79984 2.66184 8.64182 2.64256 8.42453C2.60399 8.02947 2.93178 7.51589 3.58735 6.90354C4.22365 6.38996 4.97563 5.89614 5.51551 5.52083ZM21.5964 18.2418C21.1722 19.8616 20.613 21.3233 20.1117 22.3702C19.9189 21.9752 19.6296 21.5208 19.2247 21.0863C18.5306 20.2961 17.2966 19.4072 15.4455 19.5653C14.655 19.6443 13.9416 19.9801 13.3246 20.5332C12.8232 21.0073 12.3798 21.6986 11.9941 22.548C11.5507 23.5751 11.2421 24.7406 11.0108 25.827C10.7794 25.2147 10.4709 24.5628 10.066 23.8714C9.54537 22.9826 8.48488 21.8369 7.13517 20.3949L6.30606 19.4863C5.41911 18.5184 4.66712 17.5307 4.12724 16.5826C3.52951 15.5356 3.18244 14.548 3.10531 13.6986C3.02819 12.8887 3.08603 12.2566 3.25957 11.6048C3.41382 11.0122 3.70304 10.3998 4.22365 9.51095C4.59 8.8591 4.99491 8.34552 5.38054 7.8912C5.99755 7.12083 6.46031 6.50848 6.40247 5.79737C6.34462 5.20478 5.86258 4.65169 4.91778 4.13811C4.51287 3.92083 4.05011 3.7233 3.62592 3.56527C4.53215 3.3875 5.70833 3.15046 5.70833 3.15046L5.88186 3.11095L5.93971 2.95293C6.3639 1.55046 7.3087 0.91836 7.8293 0.898607C8.19565 0.878854 9.95028 1.01713 11.2229 1.09614C10.9529 1.35293 10.6251 1.68873 10.3745 1.94552C9.96956 2.36034 9.5068 2.47885 8.83195 2.63688L8.17637 2.7949L8.42703 3.17021C8.562 3.36774 9.25614 5.027 9.46824 5.9554C9.52608 6.15293 9.60321 6.80478 9.68034 7.53564C9.83459 8.79984 10.0467 10.3998 10.2588 11.269C10.548 12.5134 11.165 13.4813 12.2255 14.2912L12.5726 14.548L12.6304 14.3307C12.9196 13.3628 13.7102 11.9406 14.4815 10.9924C15.1563 10.143 16.2554 9.11589 17.5087 8.95787C18.5306 8.8196 19.6104 9.17515 20.4587 9.88626C21.4035 10.6764 22.0013 11.8813 22.117 13.264C22.2712 14.6665 22.0784 16.3455 21.5964 18.2418ZM7.86787 3.64428C7.8293 3.17021 7.40511 2.7949 6.92307 2.85416C6.46031 2.89367 6.09396 3.32824 6.1518 3.82206C6.19037 4.29614 6.61456 4.67145 7.0966 4.61219C7.55936 4.55293 7.90643 4.11836 7.86787 3.64428ZM7.27014 3.70354C7.28942 3.84182 7.17373 3.98009 7.03876 3.99984C6.90379 4.01959 6.76882 3.90108 6.74953 3.7628C6.73025 3.62453 6.84594 3.48626 6.98091 3.46651C7.13517 3.427 7.25086 3.52577 7.27014 3.70354ZM5.01419 28.2566V28.3949C5.01419 28.5924 4.99491 28.6912 4.62856 28.6912C4.45502 28.6912 4.22365 28.6714 4.03083 28.6122L3.97299 29.027C4.14652 29.0863 4.3779 29.1258 4.64784 29.1258C5.34198 29.1258 5.49623 28.869 5.49623 28.4344V28.1974C5.49623 27.8418 5.36126 27.6048 4.8985 27.585C4.76353 27.585 4.6864 27.5653 4.55143 27.5653V26.9134H5.45767V26.4986H4.05011V27.9603C4.24293 27.9603 4.39718 27.9603 4.66712 27.9801C4.97563 27.9998 5.01419 28.0591 5.01419 28.2566ZM2.14123 29.0665H3.6452V28.6517H3.1246V26.4986H2.7004L2.06411 26.6961L2.1798 27.111L2.66184 26.9727V28.6517H2.16052V29.0665H2.14123ZM5.88186 28.2764V28.4344C5.88186 28.8887 6.09396 29.106 6.71097 29.106C7.32798 29.106 7.54008 28.9282 7.54008 28.4344V28.2764C7.54008 28.0591 7.46295 27.9011 7.17373 27.7628C7.42439 27.6245 7.48223 27.4665 7.48223 27.269V27.0912C7.48223 26.6961 7.28942 26.4591 6.73025 26.4591C6.17109 26.4591 5.97827 26.6961 5.97827 27.0912V27.269C5.97827 27.4665 6.0554 27.6245 6.28678 27.7628C5.95899 27.9011 5.88186 28.0591 5.88186 28.2764ZM7.01948 27.269C7.01948 27.4072 6.98091 27.4665 6.71097 27.585C6.44103 27.4665 6.40247 27.427 6.40247 27.269V27.111C6.40247 26.9529 6.46031 26.8739 6.71097 26.8739C6.96163 26.8739 7.01948 26.9727 7.01948 27.111V27.269ZM6.34462 28.3159C6.34462 28.1579 6.38318 28.0789 6.71097 27.9406C7.03876 28.0789 7.07732 28.1381 7.07732 28.3159V28.4344C7.07732 28.6319 6.98091 28.6912 6.71097 28.6912C6.44103 28.6912 6.34462 28.6122 6.34462 28.4344V28.3159ZM8.69698 26.4986L7.79074 28.0393V28.4739H8.88979V29.0468H9.35255V28.4739H9.66105V28.0591H9.35255V26.4789H8.69698V26.4986ZM8.27278 28.0789L8.88979 26.9529V28.0789H8.27278Z" fill="#E1001A"/>
</g>
<defs>
<clipPath id="clip0_1_414">
<rect width="115.882" height="32.5926" fill="white" transform="translate(0.0588226 0.148163)"/>
</clipPath>
</defs>
</svg>
