<svg width="134" height="14" viewBox="0 0 134 14" fill="none" xmlns="http://www.w3.org/2000/svg">
<g id="royal-talens-bv-logo-vector 1" clip-path="url(#clip0_1_425)">
<path id="Vector" d="M8.79497 12.7151L7.31949 13.1069L4.10426 8.22126L2.29845 8.17517L2.38653 12.8995L0.933075 13.0147V1.07723L3.75191 0.985049C5.02919 0.938958 6.02018 1.23855 6.70287 1.83773C7.38556 2.45995 7.73791 3.28958 7.73791 4.28053C7.73791 4.94884 7.51769 5.59411 7.09927 6.23937C6.68085 6.90769 6.08625 7.41468 5.29346 7.73732V7.7834L8.79497 12.7151ZM2.36451 1.92991L2.27642 7.36859L4.47864 7.27641C5.27143 7.04596 6.21838 6.07805 6.21838 4.64924C6.21838 3.05912 5.22739 2.02209 3.57573 1.976L2.36451 1.92991ZM15.6439 13.1069C12.4727 13.1069 9.98417 10.641 9.98417 6.95377C9.98417 3.56612 12.803 0.80069 15.9742 0.80069C19.1674 0.80069 21.6559 3.28958 21.6559 6.97682C21.6339 10.3875 18.6829 13.1069 15.6439 13.1069ZM15.8641 12.1159C18.3526 12.1159 20.0923 10.1801 20.0923 7.09204C20.0923 4.00398 18.0663 1.79163 15.754 1.79163C13.2875 1.79163 11.5257 3.70439 11.5257 6.83855C11.5257 9.85748 13.5958 12.1159 15.8641 12.1159ZM27.8881 12.8995L26.4347 13.0147V7.34554L22.1404 1.19246L23.7039 0.985049L27.3156 6.49287L31.0373 0.985049L32.2926 1.19246L27.8661 7.41468L27.8881 12.8995ZM42.1585 12.8764L40.639 13.0377L39.5158 9.88052L34.0323 9.99575L32.9092 13.0147L31.6539 12.8764L36.5649 0.985049L37.2255 0.823733L42.1585 12.8764ZM36.719 3.03608L34.4507 8.93567L39.1635 9.02785L36.719 3.03608ZM47.2015 12.8995L44.1845 12.9916V1.10028L45.638 0.985049L45.5719 6.03196L45.616 11.9776L50.4608 11.7933L50.3507 12.9225L47.2015 12.8995ZM80.6972 12.8995L79.2437 13.0147V1.976L74.8393 2.13731L74.9494 0.985049H79.8383L84.9695 0.869823L84.8594 2.09123L80.7192 1.92991L80.6311 6.30851L80.6972 12.8995ZM94.7253 12.8764L93.2058 13.0377L92.0826 9.88052L86.5991 9.99575L85.476 13.0147L84.2207 12.8764L89.1317 0.985049L89.7923 0.823733L94.7253 12.8764ZM89.2858 3.03608L87.0175 8.93567L91.7303 9.02785L89.2858 3.03608ZM99.7683 12.8995L96.7513 12.9916V1.10028L98.2048 0.985049L98.1387 6.00892L98.1828 11.9546L103.028 11.7702L102.918 12.8995H99.7683ZM107.014 12.8995L105.098 12.9916V1.07723L107.828 0.985049H111.22L111.11 2.13731L106.551 1.95295L106.441 6.46983L110.405 6.3546L110.163 7.48382L106.419 7.36859L106.529 11.9546L111.594 11.7933L111.484 12.9225H107.014V12.8995ZM115.184 12.8995L113.885 13.0147L113.995 1.10028L115.052 0.985049L122.077 10.2032L121.945 1.10028L123.244 0.985049L123.09 12.8995L122.605 12.9916L115.03 3.35872L115.184 12.8995ZM128.97 13.0147C128.309 13.0147 127.648 12.8764 127.01 12.5999C126.371 12.3233 125.887 11.9776 125.534 11.632L126.239 10.8254C127.12 11.5167 128.067 12.0468 129.344 12.0468C130.753 12.0468 131.722 11.3785 131.722 10.0649C131.722 9.37352 131.48 8.84349 131.04 8.52085C130.599 8.19822 129.983 7.87558 129.234 7.55295C127.67 6.90768 125.997 6.23937 125.997 4.05007C125.997 2.29863 127.516 0.892869 129.586 0.892869C130.665 0.892869 131.789 1.2155 132.449 1.7225L132.185 2.75954C131.524 2.4369 130.247 1.95295 129.278 1.95295C128.199 1.95295 127.296 2.48299 127.296 3.63525C127.296 4.3727 127.538 4.90274 127.979 5.22538C128.419 5.57106 129.036 5.89369 129.762 6.21633C131.304 6.90769 133.022 7.46077 133.022 9.60398C133.044 11.8624 131.084 13.0147 128.97 13.0147Z" fill="#333333"/>
<path id="Vector_2" d="M56.8698 0.823029V12.9679H68.4754V0.823029H56.8698ZM62.6616 12.4609C59.7106 12.4609 57.3322 9.972 57.3322 6.88393C57.3322 3.79587 59.7106 1.30698 62.6616 1.30698C65.6125 1.30698 67.9909 3.79587 67.9909 6.88393C67.9909 9.972 65.6125 12.4609 62.6616 12.4609ZM57.9929 7.87488C58.103 8.42797 58.6315 9.7646 59.5344 9.44196C60.1951 9.18846 60.2391 8.54319 60.3713 7.80575C60.4814 7.11439 60.6576 5.80081 60.8778 5.52427C60.8998 5.50122 60.8778 5.47817 60.8558 5.47817C60.3272 5.50122 59.9749 6.74566 59.7767 7.32179C59.4023 8.45101 58.2571 8.5432 58.0589 7.85184C58.0589 7.85184 57.9929 7.85183 57.9929 7.87488ZM67.2422 5.91603C67.11 5.61644 67.0219 5.50122 66.8898 5.22467C66.9999 4.90204 67.1321 4.46418 67.11 4.27982C67.0219 3.49628 66.0089 4.32591 66.2291 5.3399C66.2952 5.61644 66.3613 5.82386 66.4053 6.00822C66.097 6.65348 65.9649 6.53826 65.9869 6.3078C66.0089 6.14649 66.031 5.82385 66.031 5.82385C66.119 5.20163 65.8107 5.15554 65.6125 5.29381C65.5024 5.36295 65.3483 5.5934 65.2822 5.73167L65.3483 5.43209L64.7977 5.66254L64.6215 6.60739C64.4013 7.13743 64.1591 7.22961 64.0049 7.20657C63.9609 7.18352 63.9168 7.16048 63.8728 7.13743C64.3793 6.67653 64.5555 6.28476 64.5114 6.00822C64.4674 5.70863 64.2472 5.70863 64.093 5.75472C63.6966 5.89299 63.3663 6.3078 63.2782 6.88393C63.2562 7.0683 63.2562 7.25266 63.3002 7.39093C62.9479 7.96707 62.9258 7.64443 62.9699 7.41397C63.08 6.88393 63.4323 4.69463 63.4323 4.69463L62.8818 4.92509C62.8818 4.92509 62.5515 6.83784 62.4193 7.57529C62.1551 8.24361 62.089 7.99011 62.133 7.75965C62.2211 7.22961 62.3533 6.53826 62.3533 6.53826L61.8247 6.74566C61.8247 6.74566 61.7807 6.90698 61.7366 7.18352C61.6706 6.97611 61.5384 6.83785 61.3623 6.8148C61.0319 6.76871 60.6796 7.22961 60.5695 7.7827C60.4594 8.35883 60.6355 8.86583 60.9659 8.88888C61.2081 8.91192 61.4504 8.70451 61.6045 8.38188C61.6926 8.58928 61.9128 8.56624 62.0449 8.47406C62.1771 8.38188 62.3092 8.15143 62.3973 7.96707C62.4413 8.24361 62.6616 8.24361 62.8157 8.15142C63.058 8.01315 63.2782 7.69052 63.3883 7.55225C63.4764 7.71356 63.6305 7.80574 63.8067 7.7827C64.049 7.75965 64.3352 7.43702 64.5555 7.06829L64.4674 7.50616L65.0179 7.27571L65.2161 6.21562C65.4804 5.54731 65.5685 5.77776 65.5465 5.98517C65.5465 5.98517 65.5244 6.16953 65.4804 6.46912C65.4143 7.09135 65.6786 7.11439 65.8768 6.99916C66.1631 6.8148 66.3393 6.46912 66.4934 6.14648C66.6035 6.42303 66.7357 6.65348 66.8458 6.99916C67.6386 9.32673 64.6436 9.09628 63.4544 9.14237C62.3533 9.18846 62.2431 10.1794 62.133 10.9399C66.2291 10.986 68.079 7.82879 67.2422 5.91603ZM61.6485 7.69052C61.6265 7.96706 61.4504 8.26665 61.2962 8.26665C61.142 8.26665 61.0319 8.0362 61.076 7.71357C61.12 7.43702 61.2522 7.18352 61.4063 7.18352C61.5605 7.18352 61.6706 7.41398 61.6485 7.69052ZM63.8067 6.95307C63.7847 6.88393 63.7847 6.8148 63.7847 6.72262C63.8067 6.44607 63.9388 6.14649 64.115 6.1004C64.1811 6.07735 64.2472 6.1004 64.2472 6.21562C64.2472 6.46912 64.0049 6.76871 63.8067 6.95307ZM66.8017 5.01727C66.7797 4.99422 66.7797 4.97118 66.7797 4.94813C66.4494 4.1185 66.8898 4.00328 66.9339 4.34896C66.9339 4.53332 66.8898 4.78681 66.8017 5.01727ZM63.2341 2.64361C63.1681 3.17365 63.124 4.27982 62.133 4.44113C60.5034 4.71768 58.3232 5.45513 57.9709 7.11439C57.9709 7.13743 57.9048 7.13743 57.9048 7.13743C57.8607 4.53332 60.085 2.64361 63.2341 2.64361Z" fill="#FF0000"/>
</g>
<defs>
<clipPath id="clip0_1_425">
<rect width="132.353" height="12.4444" fill="white" transform="translate(0.823517 0.777771)"/>
</clipPath>
</defs>
</svg>
